<svg width="24" height="24" viewBox="0 0 24 24" fill="none" xmlns="http://www.w3.org/2000/svg">
<path d="M13 15.2002C13 15.1133 13.0114 15.0287 13.0322 14.9482C12.7593 14.9806 12.4818 15 12.2002 15C9.30338 15 6.81723 13.2401 5.75293 10.7314C4.11931 11.5546 3 13.2479 3 15.2002C3.00019 17.9615 5.23869 20.2002 8 20.2002C9.39869 20.2002 10.6617 19.6268 11.5703 18.7002C12.4554 17.7974 12.9999 16.5631 13 15.2002ZM15 15.2002C14.9999 16.7582 14.4887 18.1975 13.6279 19.3604C14.4213 19.8904 15.3733 20.2002 16.4004 20.2002C19.1617 20.2002 21.4003 17.9615 21.4004 15.2002C21.4004 13.2476 20.2806 11.5544 18.6465 10.7314C17.9108 12.4653 16.4955 13.8389 14.7354 14.5234C14.8993 14.7015 15 14.9391 15 15.2002ZM17.2002 8C17.2002 5.23864 14.9615 3.00011 12.2002 3C9.43877 3 7.2002 5.23858 7.2002 8C7.20034 10.7613 9.43886 13 12.2002 13C14.9614 12.9999 17.2 10.7612 17.2002 8ZM19.2002 8C19.2002 8.25878 19.1846 8.51413 19.1572 8.76562C21.6514 9.83567 23.4004 12.3121 23.4004 15.2002C23.4003 19.0661 20.2663 22.2002 16.4004 22.2002C14.8255 22.2002 13.3693 21.6789 12.1992 20.7998H12.1982C11.0288 21.6777 9.5751 22.2002 8 22.2002C4.13412 22.2002 1.00019 19.066 1 15.2002C1 12.3123 2.74829 9.83484 5.24219 8.76465C5.21489 8.51348 5.20021 8.25842 5.2002 8C5.2002 4.13401 8.3342 1 12.2002 1C16.0661 1.00011 19.2002 4.13407 19.2002 8Z" fill="url(#paint0_linear_2406_113507)"/>
<defs>
<linearGradient id="paint0_linear_2406_113507" x1="1" y1="0.151992" x2="12.3629" y2="19.5801" gradientUnits="userSpaceOnUse">
<stop stop-color="#03FF00"/>
<stop offset="1" stop-color="#00FE7C"/>
</linearGradient>
</defs>
</svg>
