<svg width="28" height="28" viewBox="0 0 28 28" fill="none" xmlns="http://www.w3.org/2000/svg">
<path d="M7 10.5V11.6667C7 12.5949 7.36875 13.4852 8.02513 14.1415C8.6815 14.7979 9.57174 15.1667 10.5 15.1667H11.6667M21 9.33333V15.1667C21 16.0949 20.6313 16.9852 19.9749 17.6415C19.3185 18.2979 18.4283 18.6667 17.5 18.6667H16.3333M11.6667 24.5V5.83333C11.6667 5.21449 11.9125 4.621 12.3501 4.18342C12.7877 3.74583 13.3812 3.5 14 3.5C14.6188 3.5 15.2123 3.74583 15.6499 4.18342C16.0875 4.621 16.3333 5.21449 16.3333 5.83333V24.5M8.16667 24.5H19.8333" stroke="#925C00" stroke-width="2" stroke-linecap="round" stroke-linejoin="round"/>
</svg>
